<svg width="247" height="156" viewBox="0 0 247 156" fill="none" xmlns="http://www.w3.org/2000/svg">
<g clip-path="url(#clip0_3_86)" filter="url(#filter0_d_3_86)">
<path d="M40.4585 126.46C35.1512 130.917 33.6471 138.758 33.6471 138.758C33.6471 138.758 40.7477 139.374 46.0549 134.917C51.3621 130.46 52.8663 122.619 52.8663 122.619C52.8663 122.619 45.7657 122.003 40.4585 126.46Z" fill="#F1F1F1"/>
<path d="M42.6693 128.552C40.1186 135.433 33.7304 138.979 33.7304 138.979C33.7304 138.979 31.4777 131.369 34.0284 124.488C36.5791 117.607 42.9673 114.061 42.9673 114.061C42.9673 114.061 45.22 121.671 42.6693 128.552Z" fill="#F1F1F1"/>
<path d="M195.363 108.66C194.799 104.381 194.65 100.046 194.918 95.7308L195.363 88.5891C192.915 94.0765 193.468 101.299 195.363 108.66V108.66Z" fill="#CACACA"/>
<path d="M197.272 109.855C197 107.302 196.929 104.726 197.058 102.159L197.272 97.9078C196.094 101.174 196.36 105.473 197.272 109.855Z" fill="#CACACA"/>
<path d="M205.757 115.112V117.502C205.756 117.691 205.689 117.873 205.57 118.007C205.451 118.142 205.289 118.217 205.121 118.218H204.06C204.033 118.218 204.005 118.224 203.979 118.236C203.953 118.248 203.93 118.266 203.91 118.288C203.89 118.31 203.875 118.337 203.864 118.366C203.854 118.395 203.848 118.426 203.848 118.457V138.051C203.847 138.24 203.78 138.422 203.661 138.556C203.542 138.691 203.38 138.767 203.212 138.768H190.273C190.104 138.767 189.942 138.692 189.823 138.557C189.704 138.423 189.637 138.241 189.637 138.051V118.457C189.636 118.394 189.614 118.333 189.574 118.289C189.535 118.244 189.481 118.219 189.425 118.218H188.152C187.983 118.218 187.821 118.143 187.702 118.008C187.583 117.874 187.516 117.692 187.516 117.502V115.112C187.515 115.018 187.532 114.925 187.564 114.838C187.596 114.751 187.643 114.672 187.702 114.605C187.761 114.538 187.831 114.486 187.908 114.45C187.985 114.414 188.068 114.395 188.152 114.395H205.121C205.29 114.396 205.451 114.472 205.57 114.606C205.69 114.74 205.757 114.922 205.757 115.112Z" fill="#F2F2F2"/>
<path d="M203.867 118.72H189.656V119.437H203.867V118.72Z" fill="#E6E6E6"/>
<path d="M203.848 129.268C199.093 131.485 194.285 131.51 189.424 129.268V124.218C194.104 122.448 199.169 122.448 203.848 124.218V129.268Z" fill="#E6E6E6"/>
<path d="M124.19 52.0533C134.806 52.0533 143.412 42.3588 143.412 30.4C143.412 18.4412 134.806 8.74664 124.19 8.74664C113.574 8.74664 104.968 18.4412 104.968 30.4C104.968 42.3588 113.574 52.0533 124.19 52.0533Z" fill="#FEB8B8"/>
<path d="M142.144 11.7193C139.27 6.46232 134.771 2.58867 129.514 0.843985L127.154 2.78386V0.264991C125.892 0.0473077 124.614 -0.03655 123.337 0.0145204L121.302 2.08965V0.186923C118.287 0.608887 115.383 1.72985 112.772 3.47911C110.162 5.22838 107.901 7.56801 106.133 10.3505C101.712 17.5305 100.965 27.5196 105.314 34.7573C106.508 30.6246 107.957 26.7469 109.151 22.6146C110.089 22.7587 111.04 22.7639 111.979 22.6301L113.432 18.8125L113.837 22.4685C118.339 22.0268 125.016 21.0567 129.284 20.168L128.869 17.3631L131.352 19.6938C132.659 19.3548 133.435 19.0471 133.371 18.8121C136.545 24.5762 140.43 28.2577 143.603 34.0217C144.809 25.8941 146.196 19.136 142.144 11.7193Z" fill="#2F2E41"/>
<path d="M165.532 86.0822C164.871 81.6026 164.189 77.037 162.341 73.0015C161.126 70.3583 159.198 67.8394 156.599 67.3168C156.087 67.2653 155.583 67.1341 155.103 66.9269C154.342 66.5136 144.107 59.9322 142.48 58.7859C141.084 57.8018 138.879 55.9797 137.767 55.9797C136.649 55.952 132.36 57.0764 115.621 55.6024C115.621 55.6024 111.023 57.6441 107.465 60.1199C107.411 60.0798 90.0918 70.5566 89.4411 70.529C88.2089 70.4706 87.0635 71.3593 86.3571 72.4785C85.6508 73.5977 85.3195 74.9832 84.9727 76.3227C88.7555 85.8125 92.2166 95.3144 95.9998 104.804C96.1769 105.162 96.2711 105.564 96.2734 105.973C96.1974 106.398 96.0364 106.798 95.8028 107.142C93.9475 110.499 94.0065 114.721 94.2092 118.667C94.412 122.613 94.6628 126.781 93.0975 130.317C92.6717 131.288 92.118 132.177 91.713 133.148C90.7647 135.347 90.422 142.381 90.9759 144.743L160.372 146.983C158.88 142.363 165.532 86.0822 165.532 86.0822Z" fill="#3A3A3A"/>
<path d="M78.9741 105.225C78.8356 106.353 78.8217 107.497 78.9326 108.629L79.9272 124.72C80.0206 126.236 80.1125 127.749 80.2388 129.262C80.4775 132.198 80.834 135.11 81.2765 138.019C81.2865 138.432 81.4415 138.823 81.7075 139.108C81.9735 139.392 82.3288 139.546 82.6954 139.535C87.0737 140.579 91.5974 140.537 96.0658 140.253C102.884 139.824 120.329 139.013 121.395 137.453C122.46 135.894 121.839 133.371 120.45 132.11C119.06 130.849 96.0394 127.775 96.0394 127.775C96.2644 125.767 96.9429 123.876 97.5866 121.969C98.7428 118.588 99.8227 115.095 99.8434 111.473C99.8642 107.851 98.6527 104.043 96.0187 101.968C93.8519 100.264 91.0622 99.948 88.4219 100.018C86.5008 100.08 83.1816 99.5619 81.4269 100.408C80.0384 101.097 79.2335 103.693 78.9741 105.225Z" fill="#959595"/>
<path d="M84.7725 76.6116C84.4353 77.0092 84.1739 77.4803 84.0043 77.9959C81.2065 85.0985 79.554 92.7057 79.1241 100.461C79.1317 100.839 79.0543 101.213 78.8992 101.549C78.7462 101.772 78.576 101.98 78.3904 102.169C78.2286 102.385 78.1062 102.635 78.0301 102.904C77.954 103.173 77.9258 103.457 77.947 103.739C77.9682 104.02 78.0385 104.294 78.1538 104.546C78.2691 104.797 78.4271 105.02 78.6189 105.202C78.6504 105.232 78.6826 105.26 78.7158 105.288C79.2868 104.077 80.6539 103.682 81.869 103.576C87.687 103.058 93.3702 106.107 99.2056 105.877C98.7939 104.274 98.2017 102.734 97.866 101.113C96.3811 93.9114 100.085 86.0709 97.8141 79.1346C97.3605 77.7466 96.6027 76.382 95.4087 75.7738C94.9143 75.5491 94.3969 75.3949 93.8686 75.3146C92.3941 75.0144 89.4588 73.7316 88.0331 74.2463C87.5069 74.4375 87.2994 74.9948 86.8632 75.3317C86.2007 75.8084 85.3217 75.9838 84.7725 76.6116Z" fill="#3A3A3A"/>
<path d="M165.573 100.408C163.818 99.5619 160.499 100.08 158.578 100.018C155.938 99.948 153.148 100.264 150.981 101.968C148.347 104.043 147.136 107.851 147.157 111.473C147.177 115.095 148.257 118.588 149.413 121.969C150.057 123.876 150.736 125.767 150.961 127.775C150.961 127.775 127.94 130.849 126.55 132.11C125.161 133.371 124.54 135.894 125.605 137.453C126.671 139.013 159.926 140.579 164.305 139.535C164.671 139.546 165.027 139.392 165.293 139.108C165.559 138.823 165.714 138.432 165.724 138.019C166.166 135.11 166.523 132.198 166.761 129.262C166.888 127.749 166.979 126.236 167.073 124.72L168.067 108.629C168.178 107.497 168.164 106.353 168.026 105.225C167.767 103.693 166.962 101.097 165.573 100.408Z" fill="#959595"/>
<path d="M160.137 75.3317C159.701 74.9948 159.493 74.4375 158.967 74.2463C157.541 73.7316 154.606 75.0144 153.131 75.3146C152.603 75.3949 152.086 75.5491 151.591 75.7738C150.397 76.382 149.64 77.7466 149.186 79.1346C146.915 86.0709 150.619 93.9114 149.134 101.113C148.798 102.734 148.206 104.274 147.794 105.877C153.63 106.107 159.313 103.058 165.131 103.576C166.346 103.682 167.713 104.077 168.284 105.288C168.317 105.26 168.35 105.232 168.381 105.202C168.573 105.02 168.731 104.797 168.846 104.546C168.962 104.294 169.032 104.02 169.053 103.739C169.074 103.457 169.046 103.173 168.97 102.904C168.894 102.635 168.771 102.385 168.61 102.169C168.424 101.98 168.254 101.772 168.101 101.549C167.946 101.213 167.868 100.839 167.876 100.461C167.446 92.7057 165.794 85.0985 162.996 77.9959C162.826 77.4803 162.565 77.0092 162.228 76.6116C161.678 75.9837 160.799 75.8084 160.137 75.3317Z" fill="#3A3A3A"/>
<path d="M118.497 140.304C121.363 140.304 123.685 137.687 123.685 134.459C123.685 131.232 121.363 128.615 118.497 128.615C115.632 128.615 113.309 131.232 113.309 134.459C113.309 137.687 115.632 140.304 118.497 140.304Z" fill="#959595"/>
<path d="M129.985 140.304C132.85 140.304 135.173 137.687 135.173 134.459C135.173 131.232 132.85 128.615 129.985 128.615C127.12 128.615 124.797 131.232 124.797 134.459C124.797 137.687 127.12 140.304 129.985 140.304Z" fill="#959595"/>
<path d="M162.01 147.629H90.7336C89.9014 147.628 89.1036 147.255 88.5152 146.592C87.9267 145.929 87.5957 145.03 87.5947 144.093V95.3828C87.5957 94.4453 87.9267 93.5467 88.5152 92.8838C89.1036 92.221 89.9014 91.8482 90.7336 91.8471H162.01C162.842 91.8482 163.64 92.221 164.228 92.8838C164.817 93.5467 165.148 94.4453 165.149 95.3828V144.093C165.148 145.03 164.817 145.929 164.228 146.592C163.64 147.255 162.842 147.628 162.01 147.629Z" fill="#3F3D56"/>
<path d="M126.199 122.077C127.346 122.077 128.275 121.03 128.275 119.738C128.275 118.446 127.346 117.399 126.199 117.399C125.052 117.399 124.122 118.446 124.122 119.738C124.122 121.03 125.052 122.077 126.199 122.077Z" fill="white"/>
<path d="M243 137.804H4V146.077H18.1366V148H228.869V146.077H243V137.804Z" fill="#F1F1F1"/>
<path d="M106.514 38.4706C103.426 38.4706 100.922 35.421 100.922 31.6591V28.2533C100.922 24.4914 103.426 21.4418 106.514 21.4418V38.4706H106.514Z" fill="#3A3A3A"/>
<path d="M142.209 21.4418C145.298 21.4418 147.801 24.4914 147.801 28.2533V31.6591C147.801 35.421 145.298 38.4706 142.209 38.4706V21.4418Z" fill="#3A3A3A"/>
<path d="M145.14 28.7885H144.252C144.252 15.0824 135.097 3.93163 123.844 3.93163C112.591 3.93163 103.436 15.0824 103.436 28.7885H102.549C102.549 14.4864 112.102 2.85091 123.844 2.85091C135.586 2.85091 145.14 14.4865 145.14 28.7885Z" fill="#3A3A3A"/>
</g>
<defs>
<filter id="filter0_d_3_86" x="0" y="0" width="247" height="156" filterUnits="userSpaceOnUse" color-interpolation-filters="sRGB">
<feFlood flood-opacity="0" result="BackgroundImageFix"/>
<feColorMatrix in="SourceAlpha" type="matrix" values="0 0 0 0 0 0 0 0 0 0 0 0 0 0 0 0 0 0 127 0" result="hardAlpha"/>
<feOffset dy="4"/>
<feGaussianBlur stdDeviation="2"/>
<feComposite in2="hardAlpha" operator="out"/>
<feColorMatrix type="matrix" values="0 0 0 0 0 0 0 0 0 0 0 0 0 0 0 0 0 0 0.25 0"/>
<feBlend mode="normal" in2="BackgroundImageFix" result="effect1_dropShadow_3_86"/>
<feBlend mode="normal" in="SourceGraphic" in2="effect1_dropShadow_3_86" result="shape"/>
</filter>
<clipPath id="clip0_3_86">
<rect width="239" height="148" fill="white" transform="translate(4)"/>
</clipPath>
</defs>
</svg>
